Coordinates
version=1
nRows=8
nColumns=33
inDegrees=yes

Units are S.I. units (second, meters, Newtons, ...)
Angles are in degrees.

endheader
time	ground_thorax_rot_x	ground_thorax_rot_y	ground_thorax_rot_z	ground_thorax_tx	ground_thorax_ty	ground_thorax_tz	clav_prot_r	clav_elev_r	scapula_abduction_r	scapula_elevation_r	scapula_upward_rot_r	scapula_winging_r	shoulder_elv_r	plane_of_elev_r	axial_rot_r	elbow_flexion_r	pro_sup_r	wrist_flex_r	wrist_dev_r	clav_prot_l	clav_elev_l	scapula_abduction_l	scapula_elevation_l	scapula_upward_rot_l	scapula_winging_l	shoulder_elv_l	plane_of_elev_l	axial_rot_l	elbow_flexion_l	pro_sup_l	wrist_flex_l	wrist_dev_l
      7.26000000	     -1.13577489	      0.32203434	     14.29491791	     -0.12200024	      1.02949197	      0.00893773	      8.82035277	     -9.09566512	     16.92581135	     -3.32931190	      3.05222117	     -3.98945504	    -37.51894317	    -73.09463840	    103.09870385	    -78.15383599	   -155.94963913	     33.58522941	    -15.33565976	      9.76369894	     -2.32100047	    -11.80246647	    -18.84749754	    -33.64546154	     -1.20713036	     59.60110038	    -27.41147124	      5.90489200	     67.93197449	     12.60070349	      9.42062853	    -20.03102525
      7.27000000	     -1.11937194	      0.27708246	     13.99676540	     -0.12157983	      1.03026331	      0.00916390	      8.62281526	     -8.97092438	     16.91124830	     -3.47605100	      3.69259189	     -4.05591155	    -40.74873003	    -73.14140566	    100.23641521	    -77.02157877	   -152.70317753	     37.38323656	    -17.89253057	      9.01301854	     -2.03009435	    -10.34975331	    -18.91787925	    -33.13402238	     -1.74967890	     59.87842992	    -28.63717886	      4.63402834	     68.09683065	     13.65759220	      7.45342610	    -23.15965276
      7.28000000	     -0.94806523	      0.22445189	     14.21166375	     -0.12193043	      1.03022709	      0.00937111	      8.55636774	     -8.55388357	     16.52370400	     -2.90863522	      3.21245032	     -4.04892148	    -41.35668179	    -73.41983237	    100.06300462	    -76.76794534	   -152.55197669	     37.44184016	    -17.96537943	      8.83747871	     -1.74248335	    -10.05937976	    -19.41338827	    -33.55566729	     -1.96583686	     59.57367575	    -29.42428080	      4.54535965	     68.50727603	     13.68494207	      7.40122697	    -23.35973265
      7.29000000	     -0.75916203	      0.28342790	     14.24802975	     -0.12209250	      1.02998964	      0.00961008	      8.63173619	     -8.03109016	     16.61553104	     -2.43505002	      3.20416491	     -4.28310416	    -43.41516391	    -73.36372908	     98.28559167	    -76.23802199	   -151.03532699	     38.92849687	    -19.01130337	      8.49757221	     -1.39415526	     -9.39405542	    -19.72857441	    -33.46523939	     -2.24720317	     59.49614912	    -30.30857100	      3.40676833	     68.70722546	     14.49388810	      6.60495248	    -24.99999983
      7.30000000	     -0.52151374	     -0.07651646	     14.13711779	     -0.12175701	      1.03056966	      0.00984013	      8.78518933	     -7.60817554	     17.42728283	     -2.49966160	      4.30889007	     -4.80176569	    -47.58126909	    -73.32815777	     94.74987659	    -74.93232090	   -148.15655282	     41.47555896	    -20.78807541	      7.73685564	     -1.16020702	     -7.92751479	    -19.80846518	    -33.08559078	     -2.79496884	     59.22881003	    -31.48433013	      2.85101530	     68.95726061	     15.90694492	      4.94730648	    -24.99999983
      7.31000000	     -0.48018591	     -0.16057787	     14.21655727	     -0.12200151	      1.03051048	      0.01006579	      8.76483756	     -7.35446443	     17.17638166	     -2.12064975	      3.93102290	     -4.77861353	    -48.07916105	    -73.35572826	     94.59060356	    -74.44013209	   -148.06933263	     41.40505629	    -20.79096377	      7.62049751	     -0.90336134	     -7.73841857	    -20.26785437	    -33.49392478	     -2.96935291	     59.03895492	    -32.28269428	      2.77538021	     69.29432663	     15.92455051	      4.90201508	    -24.99999983
      7.32000000	     -0.29727327	     -0.15060614	     14.18114912	     -0.12201434	      1.03059613	      0.01048229	      8.89934652	     -6.82559897	     17.67075089	     -1.87931866	      4.50655226	     -5.18585744	    -50.97849972	    -72.95503872	     91.94496296	    -73.28859198	   -145.95595804	     43.22502584	    -21.76846091	      7.21307164	     -0.61207378	     -6.91707831	    -20.44798268	    -33.23186665	     -3.27361308	     58.96045966	    -33.11552308	      1.66922637	     69.28876124	     17.35781009	      3.50554115	    -24.99999983
      7.33000000	     -0.21420314	     -0.31460173	     14.22113126	     -0.12208869	      1.03069910	      0.01063732	      8.84834257	     -6.68250985	     17.42392681	     -1.64082088	      4.23123681	     -5.12548807	    -51.40732123	    -73.14842039	     91.85227499	    -72.68376228	   -145.81064641	     43.22294715	    -21.78708441	      7.06009619	     -0.43944918	     -6.67119521	    -20.82642639	    -33.64031672	     -3.46296217	     58.65110727	    -33.82962194	      1.81837609	     69.36486111	     17.40007418	      3.42115688	    -24.99999983
